# xmcd
#
# Track frame offsets:
#	150
#	21047
#	42377
#	65895
#	89675
#	113805
#	137107
#	157352
#	187447
#	205420
#
# Disc length: 3304 seconds
#
# Revision: 1
# Processed by: cddbd v1.5.2PL0 Copyright (c) Steve Scherf et al.
# Submitted via: EZCDAudioConverter 8.0.2.1
#
DISCID=a30ce60a
DTITLE=Various Artist - Chúng Ta Đi Mang Theo Quê Hương 2
DYEAR=1999
DGENRE=World Pop
TTITLE0=Nguyễn Hưng, Như Quỳnh - Gánh lúa
TTITLE1=Hoàng Lan - Ðà Lạt hoàng hôn
TTITLE2=Phi Nhung - Lý con sáo Bạc Liêu
TTITLE3=Thế Sơn - Tình quê hương
TTITLE4=Mỹ Huyền - Hà Tiên
TTITLE5=Lê Anh Dũng - Còn chút gì để nhớ
TTITLE6=Mạnh Ðình - Kiếp tha hương
TTITLE7=Ngọc Minh - Người di tản buồn
TTITLE8=Kiều Hưng - Bèo dạt mây trôi
TTITLE9=Hoàng Lan, Thế Sơn, Mỹ Huyền - LK Móng chuồn chuồn
EXTD=
EXTT0=
EXTT1=
EXTT2=
EXTT3=
EXTT4=
EXTT5=
EXTT6=
EXTT7=
EXTT8=
EXTT9=
PLAYORDER=
